# xmcd
#
# Track frame offsets:
#	150
#	7537
#	26627
#	43650
#	61727
#	80062
#	96665
#	110840
#	131405
#	153075
#	172862
#
# Disc length: 2555 seconds
#
# Revision: 1
# Processed by: cddbd v1.5PL3 Copyright (c) Steve Scherf et al.
# Submitted via: CDex 1.50Beta5
#
DISCID=7f09f90b
DTITLE=須藤薫 - Hello Again
DYEAR=1987
DGENRE=Pop
TTITLE0=Hello Again
TTITLE1=再会のエアライン
TTITLE2=坂道はパール色
TTITLE3=街角のアントワネット
TTITLE4=ドロップ・ハンドル
TTITLE5=同い年の恋
TTITLE6=サヨナラは5月の吹雪
TTITLE7=Daddy Long Legs
TTITLE8=無言のメッセージ
TTITLE9=Sweet Little Heartache
TTITLE10=美しい暦
EXTD=
EXTT0=
EXTT1=
EXTT2=
EXTT3=
EXTT4=
EXTT5=
EXTT6=
EXTT7=
EXTT8=
EXTT9=
EXTT10=
PLAYORDER=
